<svg width="512" height="512" viewBox="0 0 512 512" fill="none" xmlns="http://www.w3.org/2000/svg">
  <rect width="512" height="512" rx="80" fill="#1a1a2e"/>
  <rect x="80" y="80" width="352" height="352" rx="40" fill="#16213e"/>
  
  <!-- Calculator/Finance Symbol -->
  <rect x="140" y="140" width="232" height="80" rx="12" fill="#0f3460" stroke="#e94560" stroke-width="4"/>
  <rect x="160" y="160" width="32" height="40" rx="6" fill="#e94560"/>
  <rect x="200" y="160" width="32" height="40" rx="6" fill="#e94560"/>
  <rect x="240" y="160" width="32" height="40" rx="6" fill="#e94560"/>
  <rect x="280" y="160" width="32" height="40" rx="6" fill="#e94560"/>
  <rect x="320" y="160" width="32" height="40" rx="6" fill="#e94560"/>
  
  <!-- Dollar Sign -->
  <circle cx="256" cy="300" r="60" fill="#0f3460" stroke="#e94560" stroke-width="4"/>
  <path d="M256 240v120M236 260c0-11 9-20 20-20s20 9 20 20-9 20-20 20-20-9-20-20" stroke="#e94560" stroke-width="8" stroke-linecap="round"/>
  
  <!-- MSFG Text -->
  <text x="256" y="420" text-anchor="middle" fill="#e94560" font-family="Arial, sans-serif" font-size="24" font-weight="bold">MSFG</text>
</svg>


